<svg fill="#000000" xmlns="http://www.w3.org/2000/svg"  viewBox="0 0 24 24" width="24px" height="24px"><path d="M 11 0 L 11 3 L 13 3 L 13 0 L 11 0 z M 4.2226562 2.8085938 L 2.8085938 4.2226562 L 4.9296875 6.34375 L 6.34375 4.9296875 L 4.2226562 2.8085938 z M 19.777344 2.8085938 L 17.65625 4.9296875 L 19.070312 6.34375 L 21.191406 4.2226562 L 19.777344 2.8085938 z M 12 5 C 8.14 5 5 8.14 5 12 C 5 14.785 6.639 17.188453 9 18.314453 L 9 21 C 9 22.103 9.897 23 11 23 L 13 23 C 14.103 23 15 22.103 15 21 L 15 18.314453 C 17.361 17.188453 19 14.785 19 12 C 19 8.14 15.86 5 12 5 z M 0 11 L 0 13 L 3 13 L 3 11 L 0 11 z M 21 11 L 21 13 L 24 13 L 24 11 L 21 11 z M 4.9296875 17.65625 L 2.8085938 19.777344 L 4.2226562 21.191406 L 6.34375 19.070312 L 4.9296875 17.65625 z M 19.070312 17.65625 L 17.65625 19.070312 L 19.777344 21.191406 L 21.191406 19.777344 L 19.070312 17.65625 z"/></svg>